<mxfile host="app.diagrams.net" modified="2023-01-25T09:07:37.659Z" agent="5.0 (Macintosh; Intel Mac OS X 10_15_7) AppleWebKit/605.1.15 (KHTML, like Gecko) Version/15.6.1 Safari/605.1.15" etag="TeAAmM7JC0s6a6Ta0g36" version="20.8.11" type="github">
  <diagram name="Page-1" id="XtlQD6ISyhycPH5JzwHQ">
    <mxGraphModel dx="2593" dy="1790" grid="1" gridSize="10" guides="1" tooltips="1" connect="1" arrows="1" fold="1" page="1" pageScale="1" pageWidth="850" pageHeight="1100" math="0" shadow="0">
      <root>
        <mxCell id="0" />
        <mxCell id="1" parent="0" />
        <mxCell id="a3o8vAVgZEUtVEMuFXgI-22" value="Считаем, что сделку может вести только один менеджер, или пользователь дилерского центра.&lt;br&gt;&lt;span style=&quot;background-color: rgb(255, 229, 153);&quot;&gt;(?) Возможно несколько.&amp;nbsp;&lt;br&gt;Менеджер может вести несколько сделок.&amp;nbsp;&lt;/span&gt;" style="text;html=1;strokeColor=none;fillColor=none;align=left;verticalAlign=middle;whiteSpace=wrap;rounded=0;" parent="1" vertex="1">
          <mxGeometry x="140" y="800" width="200" height="120" as="geometry" />
        </mxCell>
        <mxCell id="a3o8vAVgZEUtVEMuFXgI-23" value="Один менеджер относится к одному дилерскому центру.&lt;br&gt;&lt;span style=&quot;background-color: rgb(255, 229, 153);&quot;&gt;(?) Возможно менеджеры. могут относиться к нескольким центрам&lt;br&gt;В дилерском центре может быть много пользователей.&amp;nbsp;&lt;/span&gt;" style="text;html=1;strokeColor=none;fillColor=none;align=left;verticalAlign=middle;whiteSpace=wrap;rounded=0;" parent="1" vertex="1">
          <mxGeometry x="580" y="920" width="200" height="120" as="geometry" />
        </mxCell>
        <mxCell id="a3o8vAVgZEUtVEMuFXgI-24" value="К каждой сделке прилагается заполненный опросник. Заполненные опросники уникальны и привязаны к определенной сделке.&amp;nbsp;" style="text;html=1;strokeColor=none;fillColor=none;align=left;verticalAlign=middle;whiteSpace=wrap;rounded=0;" parent="1" vertex="1">
          <mxGeometry x="630" y="645" width="200" height="70" as="geometry" />
        </mxCell>
        <mxCell id="a3o8vAVgZEUtVEMuFXgI-30" value="&lt;div style=&quot;text-align: left;&quot;&gt;На каждый вопрос можно указать несколько вариантов ответа.&amp;nbsp;&lt;/div&gt;&lt;div style=&quot;text-align: left;&quot;&gt;Считаем, что администратор создаёт уникальные &amp;nbsp;ответы для вопросов (без справочника вопросов)&lt;br&gt;&lt;/div&gt;" style="text;html=1;align=center;verticalAlign=middle;whiteSpace=wrap;rounded=0;" parent="1" vertex="1">
          <mxGeometry x="2084" y="50" width="200" height="90" as="geometry" />
        </mxCell>
        <mxCell id="a3o8vAVgZEUtVEMuFXgI-31" value="&lt;div style=&quot;text-align: left;&quot;&gt;Вариант ответа на опросник можно связать с пакетом продуктов (базовый, стандартный, премиум)&lt;/div&gt;" style="text;html=1;strokeColor=none;fillColor=none;align=center;verticalAlign=middle;whiteSpace=wrap;rounded=0;" parent="1" vertex="1">
          <mxGeometry x="1990" y="440" width="200" height="90" as="geometry" />
        </mxCell>
        <mxCell id="a3o8vAVgZEUtVEMuFXgI-38" value="&lt;div style=&quot;text-align: left;&quot;&gt;Пакет продуктов включает в себя много продуктов. В разных пакетах могут содержаться одинаковые продукты.&lt;/div&gt;" style="text;html=1;strokeColor=none;fillColor=none;align=center;verticalAlign=middle;whiteSpace=wrap;rounded=0;" parent="1" vertex="1">
          <mxGeometry x="1570" y="615" width="160" height="30" as="geometry" />
        </mxCell>
        <mxCell id="a3o8vAVgZEUtVEMuFXgI-39" value="Администратор системы" style="swimlane;fontStyle=0;align=center;verticalAlign=top;childLayout=stackLayout;horizontal=1;startSize=26;horizontalStack=0;resizeParent=1;resizeLast=0;collapsible=1;marginBottom=0;rounded=0;shadow=0;strokeWidth=1;fillColor=#dae8fc;strokeColor=#6c8ebf;" parent="1" vertex="1">
          <mxGeometry x="190" y="1160" width="160" height="60" as="geometry">
            <mxRectangle x="340" y="380" width="170" height="26" as="alternateBounds" />
          </mxGeometry>
        </mxCell>
        <mxCell id="a3o8vAVgZEUtVEMuFXgI-40" value="&lt;div style=&quot;text-align: left;&quot;&gt;Дилерский центр может предлагать большое количество продуктов. Продукты в разных дилерских центрах могут повторяться.&amp;nbsp;&lt;/div&gt;" style="text;html=1;strokeColor=none;fillColor=none;align=center;verticalAlign=middle;whiteSpace=wrap;rounded=0;" parent="1" vertex="1">
          <mxGeometry x="1190" y="970" width="200" height="30" as="geometry" />
        </mxCell>
        <mxCell id="a3o8vAVgZEUtVEMuFXgI-43" value="Каждая сделка обязательно включает в себя продукты. Одни и те же продукты могут относиться к разным сделкам.&amp;nbsp;" style="text;html=1;strokeColor=none;fillColor=none;align=left;verticalAlign=middle;whiteSpace=wrap;rounded=0;" parent="1" vertex="1">
          <mxGeometry x="500" y="790" width="200" height="30" as="geometry" />
        </mxCell>
        <mxCell id="a3o8vAVgZEUtVEMuFXgI-45" value="В заполненном опроснике содержаться много ответов.&lt;br&gt;Считаем, что каждый ответ уникальный, поэтому каждый ответ соотносим с определенным опричником.&amp;nbsp;" style="text;html=1;strokeColor=none;fillColor=none;align=left;verticalAlign=middle;whiteSpace=wrap;rounded=0;" parent="1" vertex="1">
          <mxGeometry x="1080" y="625" width="200" height="90" as="geometry" />
        </mxCell>
        <mxCell id="a3o8vAVgZEUtVEMuFXgI-54" value="&lt;h1&gt;&lt;br&gt;&lt;/h1&gt;" style="text;html=1;strokeColor=none;fillColor=none;spacing=5;spacingTop=-20;whiteSpace=wrap;overflow=hidden;rounded=0;fontStyle=1" parent="1" vertex="1">
          <mxGeometry x="380" y="420" width="190" height="90" as="geometry" />
        </mxCell>
        <mxCell id="a3o8vAVgZEUtVEMuFXgI-56" value="Форма сделки" style="swimlane;fontStyle=0;align=center;verticalAlign=top;childLayout=stackLayout;horizontal=1;startSize=26;horizontalStack=0;resizeParent=1;resizeLast=0;collapsible=1;marginBottom=0;rounded=0;shadow=0;strokeWidth=1;fillColor=#dae8fc;strokeColor=#6c8ebf;" parent="1" vertex="1">
          <mxGeometry x="660" y="280" width="170" height="60" as="geometry">
            <mxRectangle x="340" y="380" width="170" height="26" as="alternateBounds" />
          </mxGeometry>
        </mxCell>
        <mxCell id="a3o8vAVgZEUtVEMuFXgI-93" style="edgeStyle=orthogonalEdgeStyle;rounded=0;orthogonalLoop=1;jettySize=auto;html=1;exitX=0;exitY=0.5;exitDx=0;exitDy=0;entryX=1;entryY=0.5;entryDx=0;entryDy=0;fontSize=16;startArrow=ERoneToMany;startFill=0;endArrow=ERmandOne;endFill=0;" parent="1" source="a3o8vAVgZEUtVEMuFXgI-57" target="a3o8vAVgZEUtVEMuFXgI-56" edge="1">
          <mxGeometry relative="1" as="geometry" />
        </mxCell>
        <mxCell id="a3o8vAVgZEUtVEMuFXgI-57" value="Поля формы" style="swimlane;fontStyle=0;align=center;verticalAlign=top;childLayout=stackLayout;horizontal=1;startSize=26;horizontalStack=0;resizeParent=1;resizeLast=0;collapsible=1;marginBottom=0;rounded=0;shadow=0;strokeWidth=1;fillColor=#dae8fc;strokeColor=#6c8ebf;" parent="1" vertex="1">
          <mxGeometry x="1030" y="280" width="170" height="60" as="geometry">
            <mxRectangle x="340" y="380" width="170" height="26" as="alternateBounds" />
          </mxGeometry>
        </mxCell>
        <mxCell id="a3o8vAVgZEUtVEMuFXgI-96" style="edgeStyle=orthogonalEdgeStyle;rounded=0;orthogonalLoop=1;jettySize=auto;html=1;exitX=0;exitY=0.5;exitDx=0;exitDy=0;entryX=1;entryY=0.5;entryDx=0;entryDy=0;fontSize=16;startArrow=ERoneToMany;startFill=0;endArrow=ERmandOne;endFill=0;" parent="1" source="a3o8vAVgZEUtVEMuFXgI-58" target="a3o8vAVgZEUtVEMuFXgI-57" edge="1">
          <mxGeometry relative="1" as="geometry" />
        </mxCell>
        <mxCell id="MlVeXuzYUrPCXChZDH_6-1" style="edgeStyle=orthogonalEdgeStyle;rounded=0;orthogonalLoop=1;jettySize=auto;html=1;exitX=0.75;exitY=1;exitDx=0;exitDy=0;entryX=0.5;entryY=0;entryDx=0;entryDy=0;startArrow=ERzeroToMany;startFill=0;endArrow=ERzeroToMany;endFill=0;strokeWidth=2;" parent="1" source="a3o8vAVgZEUtVEMuFXgI-58" target="a3o8vAVgZEUtVEMuFXgI-59" edge="1">
          <mxGeometry relative="1" as="geometry" />
        </mxCell>
        <mxCell id="a3o8vAVgZEUtVEMuFXgI-58" value="Варианты для полей формы" style="swimlane;fontStyle=0;align=center;verticalAlign=top;childLayout=stackLayout;horizontal=1;startSize=26;horizontalStack=0;resizeParent=1;resizeLast=0;collapsible=1;marginBottom=0;rounded=0;shadow=0;strokeWidth=1;fillColor=#dae8fc;strokeColor=#6c8ebf;" parent="1" vertex="1">
          <mxGeometry x="1510" y="280" width="190" height="60" as="geometry">
            <mxRectangle x="340" y="380" width="170" height="26" as="alternateBounds" />
          </mxGeometry>
        </mxCell>
        <mxCell id="a3o8vAVgZEUtVEMuFXgI-101" style="edgeStyle=orthogonalEdgeStyle;rounded=0;orthogonalLoop=1;jettySize=auto;html=1;exitX=0.5;exitY=1;exitDx=0;exitDy=0;entryX=0.5;entryY=0;entryDx=0;entryDy=0;fontSize=16;startArrow=ERzeroToMany;startFill=0;endArrow=ERzeroToMany;endFill=0;" parent="1" source="a3o8vAVgZEUtVEMuFXgI-59" target="a3o8vAVgZEUtVEMuFXgI-60" edge="1">
          <mxGeometry relative="1" as="geometry" />
        </mxCell>
        <mxCell id="a3o8vAVgZEUtVEMuFXgI-59" value="Пакет продуктов" style="swimlane;fontStyle=0;align=center;verticalAlign=top;childLayout=stackLayout;horizontal=1;startSize=26;horizontalStack=0;resizeParent=1;resizeLast=0;collapsible=1;marginBottom=0;rounded=0;shadow=0;strokeWidth=1;fillColor=#dae8fc;strokeColor=#6c8ebf;" parent="1" vertex="1">
          <mxGeometry x="1640" y="510" width="190" height="60" as="geometry">
            <mxRectangle x="340" y="380" width="170" height="26" as="alternateBounds" />
          </mxGeometry>
        </mxCell>
        <mxCell id="a3o8vAVgZEUtVEMuFXgI-103" style="edgeStyle=orthogonalEdgeStyle;rounded=0;orthogonalLoop=1;jettySize=auto;html=1;exitX=1;exitY=0.5;exitDx=0;exitDy=0;entryX=0;entryY=0.25;entryDx=0;entryDy=0;fontSize=16;startArrow=ERzeroToMany;startFill=0;endArrow=ERzeroToMany;endFill=0;" parent="1" source="a3o8vAVgZEUtVEMuFXgI-60" target="a3o8vAVgZEUtVEMuFXgI-64" edge="1">
          <mxGeometry relative="1" as="geometry" />
        </mxCell>
        <mxCell id="a3o8vAVgZEUtVEMuFXgI-104" style="edgeStyle=orthogonalEdgeStyle;rounded=0;orthogonalLoop=1;jettySize=auto;html=1;exitX=1;exitY=0.75;exitDx=0;exitDy=0;entryX=0;entryY=0.25;entryDx=0;entryDy=0;fontSize=16;startArrow=ERzeroToMany;startFill=0;endArrow=ERzeroToMany;endFill=0;" parent="1" source="a3o8vAVgZEUtVEMuFXgI-60" target="a3o8vAVgZEUtVEMuFXgI-65" edge="1">
          <mxGeometry relative="1" as="geometry" />
        </mxCell>
        <mxCell id="a3o8vAVgZEUtVEMuFXgI-105" style="edgeStyle=orthogonalEdgeStyle;rounded=0;orthogonalLoop=1;jettySize=auto;html=1;exitX=0.75;exitY=1;exitDx=0;exitDy=0;entryX=0;entryY=0.25;entryDx=0;entryDy=0;fontSize=16;startArrow=ERzeroToMany;startFill=0;endArrow=ERzeroToMany;endFill=0;" parent="1" source="a3o8vAVgZEUtVEMuFXgI-60" target="a3o8vAVgZEUtVEMuFXgI-66" edge="1">
          <mxGeometry relative="1" as="geometry" />
        </mxCell>
        <mxCell id="DbfHg1GDI_ZRotQy2173-2" style="edgeStyle=orthogonalEdgeStyle;rounded=0;orthogonalLoop=1;jettySize=auto;html=1;exitX=0;exitY=0.25;exitDx=0;exitDy=0;strokeColor=#000000;strokeWidth=2;startArrow=ERzeroToMany;startFill=0;endArrow=ERzeroToMany;endFill=0;" edge="1" parent="1" source="a3o8vAVgZEUtVEMuFXgI-60">
          <mxGeometry relative="1" as="geometry">
            <mxPoint x="1530" y="340" as="targetPoint" />
          </mxGeometry>
        </mxCell>
        <mxCell id="a3o8vAVgZEUtVEMuFXgI-60" value="Продукт" style="swimlane;fontStyle=0;align=center;verticalAlign=top;childLayout=stackLayout;horizontal=1;startSize=26;horizontalStack=0;resizeParent=1;resizeLast=0;collapsible=1;marginBottom=0;rounded=0;shadow=0;strokeWidth=1;fillColor=#dae8fc;strokeColor=#6c8ebf;" parent="1" vertex="1">
          <mxGeometry x="1640" y="710" width="190" height="60" as="geometry">
            <mxRectangle x="340" y="380" width="170" height="26" as="alternateBounds" />
          </mxGeometry>
        </mxCell>
        <mxCell id="a3o8vAVgZEUtVEMuFXgI-98" style="edgeStyle=orthogonalEdgeStyle;rounded=0;orthogonalLoop=1;jettySize=auto;html=1;exitX=0;exitY=0.25;exitDx=0;exitDy=0;entryX=1;entryY=0.25;entryDx=0;entryDy=0;fontSize=16;startArrow=ERzeroToMany;startFill=0;endArrow=ERmandOne;endFill=0;" parent="1" source="a3o8vAVgZEUtVEMuFXgI-61" target="a3o8vAVgZEUtVEMuFXgI-58" edge="1">
          <mxGeometry relative="1" as="geometry" />
        </mxCell>
        <mxCell id="a3o8vAVgZEUtVEMuFXgI-61" value="Вопросы для опросника" style="swimlane;fontStyle=0;align=center;verticalAlign=top;childLayout=stackLayout;horizontal=1;startSize=26;horizontalStack=0;resizeParent=1;resizeLast=0;collapsible=1;marginBottom=0;rounded=0;shadow=0;strokeWidth=1;fillColor=#dae8fc;strokeColor=#6c8ebf;" parent="1" vertex="1">
          <mxGeometry x="1880" y="140" width="190" height="60" as="geometry">
            <mxRectangle x="340" y="380" width="170" height="26" as="alternateBounds" />
          </mxGeometry>
        </mxCell>
        <mxCell id="a3o8vAVgZEUtVEMuFXgI-88" style="edgeStyle=orthogonalEdgeStyle;rounded=0;orthogonalLoop=1;jettySize=auto;html=1;exitX=0;exitY=0.25;exitDx=0;exitDy=0;entryX=1;entryY=0.25;entryDx=0;entryDy=0;fontSize=16;startArrow=ERzeroToMany;startFill=0;endArrow=ERmandOne;endFill=0;" parent="1" source="a3o8vAVgZEUtVEMuFXgI-62" target="a3o8vAVgZEUtVEMuFXgI-61" edge="1">
          <mxGeometry relative="1" as="geometry" />
        </mxCell>
        <mxCell id="a3o8vAVgZEUtVEMuFXgI-99" style="edgeStyle=orthogonalEdgeStyle;rounded=0;orthogonalLoop=1;jettySize=auto;html=1;exitX=0.75;exitY=1;exitDx=0;exitDy=0;entryX=1;entryY=0.5;entryDx=0;entryDy=0;fontSize=16;startArrow=ERzeroToMany;startFill=0;endArrow=ERoneToMany;endFill=0;" parent="1" source="a3o8vAVgZEUtVEMuFXgI-62" target="a3o8vAVgZEUtVEMuFXgI-59" edge="1">
          <mxGeometry relative="1" as="geometry" />
        </mxCell>
        <mxCell id="DbfHg1GDI_ZRotQy2173-7" style="edgeStyle=orthogonalEdgeStyle;rounded=0;orthogonalLoop=1;jettySize=auto;html=1;exitX=1;exitY=0.5;exitDx=0;exitDy=0;entryX=0.75;entryY=0;entryDx=0;entryDy=0;strokeColor=#000000;strokeWidth=1;startArrow=ERzeroToMany;startFill=0;endArrow=ERzeroToMany;endFill=0;" edge="1" parent="1" source="a3o8vAVgZEUtVEMuFXgI-62" target="a3o8vAVgZEUtVEMuFXgI-60">
          <mxGeometry relative="1" as="geometry">
            <Array as="points">
              <mxPoint x="2470" y="170" />
              <mxPoint x="2470" y="660" />
              <mxPoint x="1783" y="660" />
            </Array>
          </mxGeometry>
        </mxCell>
        <mxCell id="a3o8vAVgZEUtVEMuFXgI-62" value="Ответы для опросника" style="swimlane;fontStyle=0;align=center;verticalAlign=top;childLayout=stackLayout;horizontal=1;startSize=26;horizontalStack=0;resizeParent=1;resizeLast=0;collapsible=1;marginBottom=0;rounded=0;shadow=0;strokeWidth=1;fillColor=#dae8fc;strokeColor=#6c8ebf;" parent="1" vertex="1">
          <mxGeometry x="2260" y="140" width="190" height="60" as="geometry">
            <mxRectangle x="340" y="380" width="170" height="26" as="alternateBounds" />
          </mxGeometry>
        </mxCell>
        <mxCell id="a3o8vAVgZEUtVEMuFXgI-64" value="Группа продуктов" style="swimlane;fontStyle=0;align=center;verticalAlign=top;childLayout=stackLayout;horizontal=1;startSize=26;horizontalStack=0;resizeParent=1;resizeLast=0;collapsible=1;marginBottom=0;rounded=0;shadow=0;strokeWidth=1;fillColor=#dae8fc;strokeColor=#6c8ebf;" parent="1" vertex="1">
          <mxGeometry x="1920" y="723" width="190" height="70" as="geometry">
            <mxRectangle x="340" y="380" width="170" height="26" as="alternateBounds" />
          </mxGeometry>
        </mxCell>
        <mxCell id="a3o8vAVgZEUtVEMuFXgI-65" value="Тип продукта" style="swimlane;fontStyle=0;align=center;verticalAlign=top;childLayout=stackLayout;horizontal=1;startSize=26;horizontalStack=0;resizeParent=1;resizeLast=0;collapsible=1;marginBottom=0;rounded=0;shadow=0;strokeWidth=1;fillColor=#dae8fc;strokeColor=#6c8ebf;" parent="1" vertex="1">
          <mxGeometry x="1920" y="820" width="190" height="60" as="geometry">
            <mxRectangle x="340" y="380" width="170" height="26" as="alternateBounds" />
          </mxGeometry>
        </mxCell>
        <mxCell id="a3o8vAVgZEUtVEMuFXgI-66" value="Поставщик" style="swimlane;fontStyle=0;align=center;verticalAlign=top;childLayout=stackLayout;horizontal=1;startSize=26;horizontalStack=0;resizeParent=1;resizeLast=0;collapsible=1;marginBottom=0;rounded=0;shadow=0;strokeWidth=1;fillColor=#dae8fc;strokeColor=#6c8ebf;" parent="1" vertex="1">
          <mxGeometry x="1920" y="910" width="190" height="60" as="geometry">
            <mxRectangle x="340" y="380" width="170" height="26" as="alternateBounds" />
          </mxGeometry>
        </mxCell>
        <mxCell id="a3o8vAVgZEUtVEMuFXgI-109" style="edgeStyle=orthogonalEdgeStyle;rounded=0;orthogonalLoop=1;jettySize=auto;html=1;exitX=1;exitY=0.5;exitDx=0;exitDy=0;entryX=0.25;entryY=1;entryDx=0;entryDy=0;fontSize=16;startArrow=ERzeroToMany;startFill=0;endArrow=ERzeroToMany;endFill=0;" parent="1" source="a3o8vAVgZEUtVEMuFXgI-71" target="a3o8vAVgZEUtVEMuFXgI-60" edge="1">
          <mxGeometry relative="1" as="geometry" />
        </mxCell>
        <mxCell id="a3o8vAVgZEUtVEMuFXgI-71" value="Дилерский центр" style="swimlane;fontStyle=0;align=center;verticalAlign=top;childLayout=stackLayout;horizontal=1;startSize=26;horizontalStack=0;resizeParent=1;resizeLast=0;collapsible=1;marginBottom=0;rounded=0;shadow=0;strokeWidth=1;fillColor=#dae8fc;strokeColor=#6c8ebf;" parent="1" vertex="1">
          <mxGeometry x="820" y="1010" width="160" height="60" as="geometry">
            <mxRectangle x="340" y="380" width="170" height="26" as="alternateBounds" />
          </mxGeometry>
        </mxCell>
        <mxCell id="a3o8vAVgZEUtVEMuFXgI-86" style="edgeStyle=orthogonalEdgeStyle;rounded=0;orthogonalLoop=1;jettySize=auto;html=1;exitX=1;exitY=0.5;exitDx=0;exitDy=0;entryX=0;entryY=0.5;entryDx=0;entryDy=0;fontSize=16;startArrow=ERzeroToMany;startFill=0;endArrow=ERmandOne;endFill=0;" parent="1" source="a3o8vAVgZEUtVEMuFXgI-72" target="a3o8vAVgZEUtVEMuFXgI-71" edge="1">
          <mxGeometry relative="1" as="geometry" />
        </mxCell>
        <mxCell id="a3o8vAVgZEUtVEMuFXgI-72" value="Менеджер дилерского центра&#xa;" style="swimlane;fontStyle=0;align=center;verticalAlign=top;childLayout=stackLayout;horizontal=1;startSize=26;horizontalStack=0;resizeParent=1;resizeLast=0;collapsible=1;marginBottom=0;rounded=0;shadow=0;strokeWidth=1;fillColor=#dae8fc;strokeColor=#6c8ebf;" parent="1" vertex="1">
          <mxGeometry x="303" y="1010" width="230" height="60" as="geometry">
            <mxRectangle x="340" y="380" width="170" height="26" as="alternateBounds" />
          </mxGeometry>
        </mxCell>
        <mxCell id="a3o8vAVgZEUtVEMuFXgI-81" style="edgeStyle=orthogonalEdgeStyle;rounded=0;orthogonalLoop=1;jettySize=auto;html=1;exitX=1;exitY=0.5;exitDx=0;exitDy=0;entryX=0;entryY=0.5;entryDx=0;entryDy=0;fontSize=16;endArrow=ERmandOne;endFill=0;fillColor=#f8cecc;strokeColor=#000000;startArrow=ERzeroToMany;startFill=0;" parent="1" source="a3o8vAVgZEUtVEMuFXgI-73" target="a3o8vAVgZEUtVEMuFXgI-56" edge="1">
          <mxGeometry relative="1" as="geometry" />
        </mxCell>
        <mxCell id="a3o8vAVgZEUtVEMuFXgI-82" style="edgeStyle=orthogonalEdgeStyle;rounded=0;orthogonalLoop=1;jettySize=auto;html=1;exitX=0.75;exitY=1;exitDx=0;exitDy=0;fontSize=16;endArrow=ERmandOne;endFill=0;startArrow=ERone;startFill=0;entryX=0;entryY=0.5;entryDx=0;entryDy=0;" parent="1" source="a3o8vAVgZEUtVEMuFXgI-73" target="a3o8vAVgZEUtVEMuFXgI-75" edge="1">
          <mxGeometry relative="1" as="geometry">
            <mxPoint x="810" y="790" as="targetPoint" />
            <Array as="points">
              <mxPoint x="440" y="730" />
            </Array>
          </mxGeometry>
        </mxCell>
        <mxCell id="a3o8vAVgZEUtVEMuFXgI-85" style="edgeStyle=orthogonalEdgeStyle;rounded=0;orthogonalLoop=1;jettySize=auto;html=1;exitX=0.25;exitY=1;exitDx=0;exitDy=0;entryX=0.25;entryY=0;entryDx=0;entryDy=0;fontSize=16;startArrow=ERzeroToMany;startFill=0;endArrow=ERmandOne;endFill=0;" parent="1" source="a3o8vAVgZEUtVEMuFXgI-73" target="a3o8vAVgZEUtVEMuFXgI-72" edge="1">
          <mxGeometry relative="1" as="geometry" />
        </mxCell>
        <mxCell id="a3o8vAVgZEUtVEMuFXgI-111" style="edgeStyle=orthogonalEdgeStyle;rounded=0;orthogonalLoop=1;jettySize=auto;html=1;exitX=0.5;exitY=1;exitDx=0;exitDy=0;entryX=0;entryY=0.75;entryDx=0;entryDy=0;fontSize=16;startArrow=ERzeroToMany;startFill=0;endArrow=ERmany;endFill=0;" parent="1" source="a3o8vAVgZEUtVEMuFXgI-73" target="a3o8vAVgZEUtVEMuFXgI-60" edge="1">
          <mxGeometry relative="1" as="geometry">
            <Array as="points">
              <mxPoint x="400" y="840" />
              <mxPoint x="1560" y="840" />
              <mxPoint x="1560" y="755" />
            </Array>
          </mxGeometry>
        </mxCell>
        <mxCell id="a3o8vAVgZEUtVEMuFXgI-73" value="Сделка" style="swimlane;fontStyle=0;align=center;verticalAlign=top;childLayout=stackLayout;horizontal=1;startSize=26;horizontalStack=0;resizeParent=1;resizeLast=0;collapsible=1;marginBottom=0;rounded=0;shadow=0;strokeWidth=1;fillColor=#dae8fc;strokeColor=#6c8ebf;" parent="1" vertex="1">
          <mxGeometry x="320" y="640" width="160" height="60" as="geometry">
            <mxRectangle x="340" y="380" width="170" height="26" as="alternateBounds" />
          </mxGeometry>
        </mxCell>
        <mxCell id="a3o8vAVgZEUtVEMuFXgI-108" style="edgeStyle=orthogonalEdgeStyle;rounded=0;orthogonalLoop=1;jettySize=auto;html=1;entryX=0.25;entryY=1;entryDx=0;entryDy=0;fontSize=16;startArrow=ERzeroToMany;startFill=0;endArrow=ERzeroToOne;endFill=0;exitX=1;exitY=0.5;exitDx=0;exitDy=0;" parent="1" source="a3o8vAVgZEUtVEMuFXgI-75" target="a3o8vAVgZEUtVEMuFXgI-62" edge="1">
          <mxGeometry relative="1" as="geometry">
            <mxPoint x="1070" y="760" as="sourcePoint" />
            <Array as="points">
              <mxPoint x="1310" y="730" />
              <mxPoint x="1310" y="400" />
              <mxPoint x="2308" y="400" />
            </Array>
          </mxGeometry>
        </mxCell>
        <mxCell id="a3o8vAVgZEUtVEMuFXgI-75" value="Заполненный опросник" style="swimlane;fontStyle=0;align=center;verticalAlign=top;childLayout=stackLayout;horizontal=1;startSize=26;horizontalStack=0;resizeParent=1;resizeLast=0;collapsible=1;marginBottom=0;rounded=0;shadow=0;strokeWidth=1;fillColor=#dae8fc;strokeColor=#6c8ebf;" parent="1" vertex="1">
          <mxGeometry x="850" y="700" width="160" height="60" as="geometry">
            <mxRectangle x="340" y="380" width="170" height="26" as="alternateBounds" />
          </mxGeometry>
        </mxCell>
        <mxCell id="a3o8vAVgZEUtVEMuFXgI-77" value="" style="edgeStyle=orthogonalEdgeStyle;rounded=0;orthogonalLoop=1;jettySize=auto;html=1;exitX=0;exitY=0.5;exitDx=0;exitDy=0;entryX=0;entryY=0.5;entryDx=0;entryDy=0;startArrow=ERmandOne;startFill=0;endArrow=ERzeroToMany;endFill=0;labelPosition=left;verticalLabelPosition=middle;align=right;verticalAlign=middle;" parent="1" source="a3o8vAVgZEUtVEMuFXgI-78" target="a3o8vAVgZEUtVEMuFXgI-73" edge="1">
          <mxGeometry x="0.0053" relative="1" as="geometry">
            <mxPoint as="offset" />
            <mxPoint x="160" y="802.5" as="targetPoint" />
          </mxGeometry>
        </mxCell>
        <mxCell id="a3o8vAVgZEUtVEMuFXgI-78" value="Клиент" style="swimlane;fontStyle=0;align=center;verticalAlign=top;childLayout=stackLayout;horizontal=1;startSize=26;horizontalStack=0;resizeParent=1;resizeLast=0;collapsible=1;marginBottom=0;rounded=0;shadow=0;strokeWidth=1;fillColor=#dae8fc;strokeColor=#6c8ebf;" parent="1" vertex="1">
          <mxGeometry x="220" y="320" width="160" height="60" as="geometry">
            <mxRectangle x="340" y="380" width="170" height="26" as="alternateBounds" />
          </mxGeometry>
        </mxCell>
        <mxCell id="a3o8vAVgZEUtVEMuFXgI-80" value="Каждая сделка привязана &amp;nbsp;&lt;br&gt;к определенному клиенту.&amp;nbsp;&lt;br&gt;Клиент может совершать неограниченное количество сделок.&amp;nbsp;" style="text;html=1;align=left;verticalAlign=middle;whiteSpace=wrap;rounded=0;container=1;" parent="1" vertex="1">
          <mxGeometry x="20" y="450" width="170" height="70" as="geometry" />
        </mxCell>
        <mxCell id="a3o8vAVgZEUtVEMuFXgI-91" value="&lt;div style=&quot;text-align: left;&quot;&gt;На каждый вариант ответа на форму поля можно выбрать несколько вопросов, который войдут в форму опросника.&lt;/div&gt;&lt;div style=&quot;text-align: left;&quot;&gt;Каждый вопрос считаем уникальным&lt;/div&gt;" style="text;html=1;align=center;verticalAlign=middle;whiteSpace=wrap;rounded=0;" parent="1" vertex="1">
          <mxGeometry x="1700" y="50" width="200" height="90" as="geometry" />
        </mxCell>
        <mxCell id="a3o8vAVgZEUtVEMuFXgI-94" value="&lt;div style=&quot;text-align: left;&quot;&gt;Форма сделки обязательно должна содержать поля для заполнения&lt;/div&gt;" style="text;html=1;align=center;verticalAlign=middle;whiteSpace=wrap;rounded=0;" parent="1" vertex="1">
          <mxGeometry x="850" y="220" width="200" height="90" as="geometry" />
        </mxCell>
        <mxCell id="a3o8vAVgZEUtVEMuFXgI-97" value="&lt;div style=&quot;text-align: left;&quot;&gt;В поле для заполнения можно добавить справочник возможных ответов или дать пользователям вручную вносить информацию&lt;/div&gt;" style="text;html=1;align=center;verticalAlign=middle;whiteSpace=wrap;rounded=0;" parent="1" vertex="1">
          <mxGeometry x="1240" y="210" width="200" height="90" as="geometry" />
        </mxCell>
        <mxCell id="MlVeXuzYUrPCXChZDH_6-2" value="&lt;div style=&quot;text-align: left;&quot;&gt;Вариант ответа в форме можно связать с пакетом продуктов (базовый, стандартный, премиум)&lt;/div&gt;" style="text;html=1;strokeColor=none;fillColor=none;align=center;verticalAlign=middle;whiteSpace=wrap;rounded=0;" parent="1" vertex="1">
          <mxGeometry x="1570" y="420" width="180" height="90" as="geometry" />
        </mxCell>
        <mxCell id="DbfHg1GDI_ZRotQy2173-1" value="Все сделки заполняются на основе определенной формы сделки. Одна и та же форма может применяться для нескольких сделок" style="text;html=1;strokeColor=none;fillColor=none;align=left;verticalAlign=middle;whiteSpace=wrap;rounded=0;" vertex="1" parent="1">
          <mxGeometry x="380" y="450" width="200" height="70" as="geometry" />
        </mxCell>
        <mxCell id="DbfHg1GDI_ZRotQy2173-6" value="&lt;div style=&quot;text-align: left;&quot;&gt;Варианты ответа в форме могут быть связаны с продуктами, которые войдут в меню продаж&lt;/div&gt;" style="text;html=1;strokeColor=none;fillColor=none;align=center;verticalAlign=middle;whiteSpace=wrap;rounded=0;" vertex="1" parent="1">
          <mxGeometry x="1370" y="550" width="160" height="30" as="geometry" />
        </mxCell>
        <mxCell id="DbfHg1GDI_ZRotQy2173-8" value="&lt;div style=&quot;text-align: left;&quot;&gt;Вариант ответа на опросник можно связать с продуктами, которые войдут в меню продаж&lt;/div&gt;" style="text;html=1;strokeColor=none;fillColor=none;align=center;verticalAlign=middle;whiteSpace=wrap;rounded=0;" vertex="1" parent="1">
          <mxGeometry x="1990" y="570" width="200" height="90" as="geometry" />
        </mxCell>
      </root>
    </mxGraphModel>
  </diagram>
</mxfile>
